<svg width="163" height="42" viewBox="0 0 163 42" fill="none" xmlns="http://www.w3.org/2000/svg">
<rect width="42" height="42" rx="8" fill="#5E7698"/>
<path d="M68.8755 17.873C68.8755 18.5322 68.6191 19.0693 68.1064 19.4844C67.5938 19.9116 66.8979 20.1191 65.9946 20.1191C65.2134 20.1191 64.4565 19.9482 63.7485 19.5942C63.0283 19.2524 62.5645 18.9717 62.3569 18.7642C62.1494 18.5566 61.9907 18.3857 61.8809 18.2515L59.6226 20.4976L59.9033 20.8027C60.062 20.998 60.3306 21.2422 60.709 21.5229C61.0752 21.8159 61.5146 22.0967 62.0029 22.3652C62.4912 22.646 63.126 22.8901 63.8828 23.0854C64.6396 23.2808 65.4331 23.3784 66.2388 23.3784C68.314 23.3784 69.9375 22.8657 71.1094 21.8403C72.2812 20.8149 72.8672 19.4966 72.8672 17.873C72.8672 16.7256 72.5742 15.7856 71.9761 15.0288C71.3901 14.2842 70.6699 13.7471 69.8154 13.4175C68.9609 13.1001 68.1187 12.8071 67.2764 12.563C66.4341 12.3188 65.7139 12.0259 65.1279 11.6719C64.542 11.3179 64.2368 10.8418 64.2368 10.2559C64.2368 9.74316 64.4565 9.2915 64.896 8.92529C65.3354 8.55908 65.9092 8.37598 66.6172 8.37598C67.2153 8.37598 67.7891 8.52246 68.3506 8.79102C68.9121 9.07178 69.2905 9.2915 69.4614 9.4624C69.6323 9.6333 69.7666 9.76758 69.8643 9.88965L72.1104 7.50928L71.8906 7.26514C71.7563 7.09424 71.5244 6.88672 71.207 6.65479C70.8896 6.42285 70.5112 6.19092 70.084 5.97119C69.6567 5.75146 69.1074 5.55615 68.436 5.38525C67.7769 5.21436 67.0811 5.14111 66.3608 5.14111C64.5542 5.14111 63.0771 5.6416 61.9419 6.64258C60.8066 7.64355 60.2329 8.85205 60.2329 10.2681C60.2329 11.4155 60.5381 12.3555 61.124 13.1123C61.7222 13.8569 62.4424 14.394 63.2847 14.7236C64.127 15.041 64.9692 15.3218 65.8237 15.5659C66.6782 15.8101 67.3984 16.103 67.9844 16.4692C68.5703 16.8232 68.8755 17.2871 68.8755 17.873ZM77.9932 9.37695C77.9932 9.86523 77.8589 10.2559 77.5903 10.5488C77.3218 10.854 76.9922 11.0005 76.6138 11.0005H75.4907V14.0034H77.6147V18.9961C77.6147 21.8281 78.8965 23.2441 81.4844 23.2441C82.3145 23.2563 83.0713 23.1343 83.7427 22.8779V19.9971L83.5962 20.0459C83.4863 20.0947 83.3276 20.1436 83.1201 20.1924C82.9126 20.2412 82.7051 20.2534 82.4854 20.2534C82.0459 20.2534 81.6919 20.1191 81.4111 19.8506C81.1304 19.582 80.9961 19.2646 80.9961 18.874V14.0034H83.4863V11.0005H80.9961V7.13086H77.9932V9.37695ZM89.3447 16.8843C89.3447 15.9688 89.6377 15.1997 90.2358 14.5649C90.8218 13.9424 91.5298 13.625 92.3477 13.625C93.1533 13.625 93.8613 13.9424 94.4595 14.5649C95.0454 15.1997 95.3506 15.9688 95.3506 16.8843C95.3506 17.7998 95.0454 18.5688 94.4595 19.1914C93.8613 19.814 93.1533 20.1191 92.3477 20.1191C91.5298 20.1191 90.8218 19.814 90.2358 19.1914C89.6377 18.5688 89.3447 17.7998 89.3447 16.8843ZM98.8418 16.8721C98.8418 15.1753 98.1948 13.686 96.9009 12.4165C95.6069 11.147 94.0933 10.5122 92.3477 10.5122C90.5898 10.5122 89.0762 11.147 87.7822 12.4165C86.4883 13.686 85.8413 15.1753 85.8413 16.8721C85.8413 18.5811 86.4883 20.0703 87.7822 21.3398C89.0762 22.6094 90.5898 23.2441 92.3477 23.2441C94.0933 23.2441 95.6069 22.6094 96.9009 21.3398C98.1948 20.0703 98.8418 18.5811 98.8418 16.8721ZM109.717 10.6221H109.217C108.545 10.6221 107.911 10.7808 107.3 11.0737C106.69 11.3789 106.299 11.623 106.116 11.8062C105.945 11.9893 105.799 12.1357 105.701 12.2456V10.7441H102.332V23H105.701V17.1284C105.701 16.0786 105.97 15.2729 106.482 14.7114C106.995 14.1499 107.703 13.8691 108.582 13.8691C109.083 13.8813 109.461 13.9302 109.705 14.0156L109.717 10.6221ZM124.218 17.9951L124.34 16.6279C124.34 14.8823 123.754 13.4297 122.595 12.2578C121.423 11.0859 119.97 10.5 118.225 10.5C116.467 10.5 114.965 11.1348 113.72 12.3799C112.463 13.625 111.84 15.1265 111.84 16.8721C111.84 18.6299 112.475 20.1313 113.745 21.3765C115.014 22.6216 116.54 23.2441 118.347 23.2441C118.981 23.2441 119.592 23.1709 120.19 23.0244C120.788 22.8779 121.276 22.7192 121.655 22.5239C122.021 22.3286 122.375 22.1089 122.717 21.8647C123.046 21.6206 123.266 21.4497 123.364 21.3521L123.596 21.1201L121.85 18.874L121.496 19.2524C121.276 19.5088 120.886 19.7651 120.349 20.0093C119.812 20.2534 119.226 20.3755 118.591 20.3755C117.712 20.3755 116.979 20.1558 116.406 19.6919C115.82 19.228 115.466 18.6665 115.344 17.9951H124.218ZM118.225 13.3809C118.933 13.3809 119.543 13.6006 120.031 14.0156C120.52 14.4429 120.837 14.98 120.971 15.627H115.344C115.539 14.9678 115.893 14.4185 116.394 14.0034C116.894 13.5884 117.504 13.3809 118.225 13.3809ZM137.853 13.5029V16.2495H140.978V18.6299L140.599 18.9473C140.331 19.1914 139.879 19.4233 139.244 19.6553C138.597 19.8872 137.889 19.9971 137.108 19.9971C135.472 19.9971 134.105 19.4478 133.006 18.3491C131.908 17.2505 131.358 15.8833 131.358 14.2476C131.358 12.6118 131.908 11.2446 133.006 10.146C134.105 9.04736 135.472 8.49805 137.108 8.49805C137.694 8.49805 138.28 8.5957 138.854 8.77881C139.415 8.96191 139.879 9.15723 140.233 9.37695C140.575 9.59668 140.904 9.84082 141.197 10.1216C141.49 10.4146 141.686 10.6099 141.771 10.7319C141.856 10.854 141.93 10.9395 141.979 11.0005L144.359 8.62012L144.078 8.25391C143.895 8.02197 143.602 7.729 143.187 7.38721C142.772 7.04541 142.308 6.70361 141.771 6.36182C141.234 6.02002 140.562 5.73926 139.732 5.49512C138.902 5.25098 138.023 5.12891 137.108 5.12891C134.435 5.12891 132.176 6.02002 130.345 7.80225C128.514 9.58447 127.599 11.7329 127.599 14.2476C127.599 16.7622 128.514 18.9229 130.345 20.7051C132.176 22.4873 134.435 23.3784 137.108 23.3784C138.036 23.3784 138.927 23.2563 139.806 23.0122C140.685 22.7681 141.393 22.4995 141.93 22.2065C142.467 21.9136 142.979 21.5718 143.468 21.1812C143.956 20.7905 144.261 20.522 144.408 20.3633C144.554 20.2046 144.652 20.0825 144.725 19.9971V13.5029H137.853ZM151.841 16.8843C151.841 15.9688 152.134 15.1997 152.732 14.5649C153.318 13.9424 154.026 13.625 154.844 13.625C155.649 13.625 156.357 13.9424 156.956 14.5649C157.542 15.1997 157.847 15.9688 157.847 16.8843C157.847 17.7998 157.542 18.5688 156.956 19.1914C156.357 19.814 155.649 20.1191 154.844 20.1191C154.026 20.1191 153.318 19.814 152.732 19.1914C152.134 18.5688 151.841 17.7998 151.841 16.8843ZM161.338 16.8721C161.338 15.1753 160.691 13.686 159.397 12.4165C158.103 11.147 156.589 10.5122 154.844 10.5122C153.086 10.5122 151.572 11.147 150.278 12.4165C148.984 13.686 148.337 15.1753 148.337 16.8721C148.337 18.5811 148.984 20.0703 150.278 21.3398C151.572 22.6094 153.086 23.2441 154.844 23.2441C156.589 23.2441 158.103 22.6094 159.397 21.3398C160.691 20.0703 161.338 18.5811 161.338 16.8721Z" fill="#5E7698"/>
<path d="M63.3984 35V34.1992H60.6797V29.3984H59.8008V35H63.3984ZM64.9997 32.1992C64.9997 31.6211 65.1989 31.1289 65.6013 30.7266C66.0036 30.3242 66.4958 30.1211 67.0778 30.1211C67.6598 30.1211 68.152 30.3242 68.5544 30.7266C68.9567 31.1289 69.1598 31.6211 69.1598 32.1992C69.1598 32.7812 68.9567 33.2734 68.5544 33.6758C68.152 34.082 67.6598 34.2812 67.0778 34.2812C66.4958 34.2812 66.0036 34.082 65.6013 33.6758C65.1989 33.2734 64.9997 32.7812 64.9997 32.1992ZM64.1208 32.1992C64.1208 33.0039 64.402 33.6875 64.9723 34.2422C65.5388 34.8008 66.2419 35.0781 67.0778 35.0781C67.9138 35.0781 68.6169 34.8008 69.1833 34.2422C69.7536 33.6875 70.0348 33.0039 70.0348 32.1992C70.0348 31.3945 69.7536 30.7148 69.1833 30.1562C68.6169 29.6016 67.9138 29.3203 67.0778 29.3203C66.2419 29.3203 65.5388 29.6016 64.9723 30.1562C64.402 30.7148 64.1208 31.3945 64.1208 32.1992ZM74.2845 29.3203C73.4447 29.3203 72.7416 29.6016 72.1752 30.1562C71.6048 30.7148 71.3236 31.3945 71.3236 32.1992C71.3236 33.0039 71.6048 33.6875 72.1752 34.2422C72.7416 34.8008 73.4447 35.0781 74.2845 35.0781C74.5658 35.0781 74.8392 35.0391 75.1048 34.9609C75.3705 34.8828 75.5892 34.793 75.7533 34.6953C75.9173 34.5938 76.0736 34.4805 76.222 34.3555C76.3705 34.2266 76.4642 34.1367 76.5072 34.0859C76.5502 34.0352 76.5814 33.9961 76.6009 33.9648L76.0384 33.4023L75.9759 33.5C75.9291 33.5586 75.8548 33.6289 75.7533 33.7148C75.6517 33.8008 75.5384 33.8867 75.4056 33.9727C75.2728 34.0586 75.1088 34.1289 74.9095 34.1914C74.7103 34.2539 74.4994 34.2852 74.2806 34.2852C73.6986 34.2852 73.2064 34.082 72.8041 33.6797C72.4017 33.2734 72.1986 32.7812 72.1986 32.2031C72.1986 31.6211 72.4017 31.1289 72.8041 30.7266C73.2103 30.3242 73.7025 30.125 74.2806 30.125C74.4994 30.125 74.7103 30.1523 74.9056 30.2148C75.1009 30.2773 75.2611 30.3438 75.3822 30.4141C75.5072 30.4844 75.6205 30.5703 75.7259 30.668C75.8353 30.7695 75.9017 30.8359 75.933 30.875C75.9642 30.9141 75.9838 30.9414 75.9994 30.9609L76.558 30.3984L76.472 30.2891C76.4134 30.2148 76.3197 30.125 76.1908 30.0195C76.0658 29.918 75.9173 29.8125 75.7455 29.7031C75.5736 29.5977 75.3588 29.5078 75.097 29.4336C74.8392 29.3594 74.5658 29.3203 74.2845 29.3203ZM77.4014 35H78.3194L78.9209 33.5195H81.4014L82.003 35H82.9209L80.6006 29.3984H79.7217L77.4014 35ZM80.1631 30.3984L81.0811 32.7188H79.2412L80.1631 30.3984ZM87.8034 35V34.1992H85.0847V29.3984H84.2058V35H87.8034ZM93.7286 33.3984C93.7286 33.6484 93.627 33.8594 93.4278 34.0273C93.2247 34.1992 92.9513 34.2812 92.6075 34.2812C92.42 34.2812 92.2403 34.2617 92.0723 34.2148C91.9044 34.168 91.7716 34.1172 91.67 34.0625C91.5684 34.0078 91.4708 33.9414 91.3848 33.8672C91.2989 33.793 91.2403 33.7422 91.2169 33.7109C91.1934 33.6797 91.1739 33.6562 91.1661 33.6406L90.6075 34.1992L90.6856 34.2969C90.7325 34.3555 90.8145 34.4258 90.9239 34.5117C91.0333 34.5977 91.1622 34.6836 91.3106 34.7695C91.4591 34.8555 91.6466 34.9258 91.877 34.9883C92.1075 35.0508 92.3497 35.082 92.6075 35.082C93.2325 35.082 93.7208 34.9258 94.0763 34.6133C94.4278 34.3008 94.6075 33.8945 94.6075 33.4023C94.6075 33.1211 94.5528 32.8789 94.4434 32.6758C94.3341 32.4727 94.1895 32.3164 94.0177 32.207C93.8458 32.0977 93.6544 32.0039 93.4434 31.9258C93.2325 31.8477 93.0216 31.7852 92.8106 31.7305C92.5997 31.6758 92.4044 31.6172 92.2325 31.5508C92.0606 31.4844 91.92 31.3906 91.8106 31.2734C91.7013 31.1562 91.6466 31.0117 91.6466 30.8398C91.6466 30.6484 91.7325 30.4805 91.9083 30.3359C92.0841 30.1953 92.3184 30.1211 92.6075 30.1211C92.7481 30.1211 92.8848 30.1406 93.0138 30.1719C93.1427 30.207 93.2481 30.2461 93.3263 30.2891C93.4044 30.332 93.4786 30.3789 93.5489 30.4336C93.6192 30.4883 93.6622 30.5273 93.6817 30.5508C93.7013 30.5742 93.7169 30.5938 93.7286 30.6016L94.2872 30.0391L94.2247 29.9609C94.1778 29.9141 94.1075 29.8555 94.0138 29.7852C93.92 29.7148 93.8067 29.6484 93.6817 29.5781C93.5567 29.5078 93.3966 29.4492 93.2052 29.3984C93.0138 29.3477 92.8145 29.3203 92.6075 29.3203C92.0411 29.3203 91.5919 29.4688 91.2638 29.7578C90.9317 30.0469 90.7677 30.4102 90.7677 30.8398C90.7677 31.125 90.8223 31.3672 90.9317 31.5703C91.0411 31.7734 91.1817 31.9258 91.3536 32.0352C91.5255 32.1445 91.7208 32.2383 91.9317 32.3164C92.1427 32.3945 92.3536 32.4609 92.5645 32.5156C92.7755 32.5703 92.9669 32.6289 93.1388 32.6953C93.3106 32.7617 93.4552 32.8516 93.5645 32.9688C93.6739 33.0859 93.7286 33.2266 93.7286 33.3984ZM100.646 29.3984H99.7673V31.7617H97.0056V29.3984H96.1267V35H97.0056V32.5586H99.7673V35H100.646V29.3984ZM103.123 32.1992C103.123 31.6211 103.322 31.1289 103.724 30.7266C104.126 30.3242 104.619 30.1211 105.201 30.1211C105.783 30.1211 106.275 30.3242 106.677 30.7266C107.08 31.1289 107.283 31.6211 107.283 32.1992C107.283 32.7812 107.08 33.2734 106.677 33.6758C106.275 34.082 105.783 34.2812 105.201 34.2812C104.619 34.2812 104.126 34.082 103.724 33.6758C103.322 33.2734 103.123 32.7812 103.123 32.1992ZM102.244 32.1992C102.244 33.0039 102.525 33.6875 103.095 34.2422C103.662 34.8008 104.365 35.0781 105.201 35.0781C106.037 35.0781 106.74 34.8008 107.306 34.2422C107.876 33.6875 108.158 33.0039 108.158 32.1992C108.158 31.3945 107.876 30.7148 107.306 30.1562C106.74 29.6016 106.037 29.3203 105.201 29.3203C104.365 29.3203 103.662 29.6016 103.095 30.1562C102.525 30.7148 102.244 31.3945 102.244 32.1992ZM109.767 29.3984V35H110.646V33H112.005C112.536 33 112.985 32.8281 113.345 32.4766C113.704 32.1289 113.888 31.7031 113.888 31.2031C113.888 30.7031 113.704 30.2773 113.345 29.9258C112.985 29.5742 112.536 29.4023 112.005 29.4023L109.767 29.3984ZM112.005 30.2031C112.278 30.2031 112.517 30.2969 112.712 30.4922C112.907 30.6836 113.005 30.9219 113.005 31.2031C113.005 31.4844 112.907 31.7227 112.712 31.9141C112.517 32.1055 112.278 32.1992 112.005 32.1992H110.646V30.1992L112.005 30.2031Z" fill="#274A5A"/>
</svg>
