<svg width="237" height="61" viewBox="0 0 237 61" fill="none" xmlns="http://www.w3.org/2000/svg">
<rect width="61" height="61" rx="8" fill="white"/>
<path d="M99.8257 23.8223C99.8257 24.7451 99.4668 25.4971 98.749 26.0781C98.0312 26.6763 97.0571 26.9668 95.7925 26.9668C94.6987 26.9668 93.6392 26.7275 92.6479 26.2319C91.6396 25.7534 90.9902 25.3604 90.6997 25.0698C90.4092 24.7793 90.187 24.54 90.0332 24.3521L86.8716 27.4966L87.2646 27.9238C87.4868 28.1973 87.8628 28.5391 88.3926 28.9321C88.9053 29.3423 89.5205 29.7354 90.2041 30.1113C90.8877 30.5044 91.7764 30.8462 92.8359 31.1196C93.8955 31.3931 95.0063 31.5298 96.1343 31.5298C99.0396 31.5298 101.312 30.812 102.953 29.3765C104.594 27.9409 105.414 26.0952 105.414 23.8223C105.414 22.2158 105.004 20.8999 104.167 19.8403C103.346 18.7979 102.338 18.0459 101.142 17.5845C99.9453 17.1401 98.7661 16.73 97.5869 16.3882C96.4077 16.0464 95.3994 15.6362 94.5791 15.1406C93.7588 14.645 93.3315 13.9785 93.3315 13.1582C93.3315 12.4404 93.6392 11.8081 94.2544 11.2954C94.8696 10.7827 95.6729 10.5264 96.6641 10.5264C97.5015 10.5264 98.3047 10.7314 99.0908 11.1074C99.877 11.5005 100.407 11.8081 100.646 12.0474C100.885 12.2866 101.073 12.4746 101.21 12.6455L104.354 9.31299L104.047 8.97119C103.859 8.73193 103.534 8.44141 103.09 8.1167C102.646 7.79199 102.116 7.46729 101.518 7.15967C100.919 6.85205 100.15 6.57861 99.2104 6.33936C98.2876 6.1001 97.3135 5.99756 96.3052 5.99756C93.7759 5.99756 91.708 6.69824 90.1187 8.09961C88.5293 9.50098 87.7261 11.1929 87.7261 13.1753C87.7261 14.7817 88.1533 16.0977 88.9736 17.1572C89.811 18.1997 90.8193 18.9517 91.9985 19.4131C93.1777 19.8574 94.3569 20.2505 95.5532 20.5923C96.7495 20.9341 97.7578 21.3442 98.5781 21.8569C99.3984 22.3525 99.8257 23.002 99.8257 23.8223ZM112.59 11.9277C112.59 12.6113 112.402 13.1582 112.026 13.5684C111.65 13.9956 111.189 14.2007 110.659 14.2007H109.087V18.4048H112.061V25.3945C112.061 29.3594 113.855 31.3418 117.478 31.3418C118.64 31.3589 119.7 31.188 120.64 30.8291V26.7959L120.435 26.8643C120.281 26.9326 120.059 27.001 119.768 27.0693C119.478 27.1377 119.187 27.1548 118.879 27.1548C118.264 27.1548 117.769 26.9668 117.376 26.5908C116.983 26.2148 116.795 25.7705 116.795 25.2236V18.4048H120.281V14.2007H116.795V8.7832H112.59V11.9277ZM128.483 22.438C128.483 21.1562 128.893 20.0796 129.73 19.1909C130.55 18.3193 131.542 17.875 132.687 17.875C133.815 17.875 134.806 18.3193 135.643 19.1909C136.464 20.0796 136.891 21.1562 136.891 22.438C136.891 23.7197 136.464 24.7964 135.643 25.668C134.806 26.5396 133.815 26.9668 132.687 26.9668C131.542 26.9668 130.55 26.5396 129.73 25.668C128.893 24.7964 128.483 23.7197 128.483 22.438ZM141.779 22.4209C141.779 20.0454 140.873 17.9604 139.061 16.1831C137.25 14.4058 135.131 13.5171 132.687 13.5171C130.226 13.5171 128.107 14.4058 126.295 16.1831C124.484 17.9604 123.578 20.0454 123.578 22.4209C123.578 24.8135 124.484 26.8984 126.295 28.6758C128.107 30.4531 130.226 31.3418 132.687 31.3418C135.131 31.3418 137.25 30.4531 139.061 28.6758C140.873 26.8984 141.779 24.8135 141.779 22.4209ZM157.004 13.6709H156.304C155.364 13.6709 154.475 13.8931 153.62 14.3032C152.766 14.7305 152.219 15.0723 151.963 15.3286C151.723 15.585 151.518 15.79 151.382 15.9438V13.8418H146.665V31H151.382V22.7798C151.382 21.3101 151.758 20.1821 152.475 19.396C153.193 18.6099 154.184 18.2168 155.415 18.2168C156.116 18.2339 156.645 18.3022 156.987 18.4219L157.004 13.6709ZM177.306 23.9932L177.476 22.0791C177.476 19.6353 176.656 17.6016 175.033 15.9609C173.392 14.3203 171.358 13.5 168.914 13.5C166.454 13.5 164.351 14.3887 162.608 16.1318C160.848 17.875 159.976 19.9771 159.976 22.4209C159.976 24.8818 160.865 26.9839 162.642 28.7271C164.42 30.4702 166.556 31.3418 169.085 31.3418C169.974 31.3418 170.829 31.2393 171.666 31.0342C172.503 30.8291 173.187 30.6069 173.717 30.3335C174.229 30.0601 174.725 29.7524 175.204 29.4106C175.665 29.0688 175.973 28.8296 176.109 28.6929L176.434 28.3682L173.99 25.2236L173.495 25.7534C173.187 26.1123 172.64 26.4712 171.888 26.813C171.136 27.1548 170.316 27.3257 169.427 27.3257C168.197 27.3257 167.171 27.0181 166.368 26.3687C165.548 25.7192 165.052 24.9331 164.881 23.9932H177.306ZM168.914 17.5332C169.906 17.5332 170.76 17.8408 171.444 18.4219C172.127 19.02 172.572 19.772 172.76 20.6777H164.881C165.155 19.7549 165.65 18.9858 166.351 18.4048C167.052 17.8237 167.906 17.5332 168.914 17.5332ZM196.394 17.7041V21.5493H200.769V24.8818L200.239 25.3262C199.863 25.668 199.23 25.9927 198.342 26.3174C197.436 26.6421 196.445 26.7959 195.351 26.7959C193.061 26.7959 191.147 26.0269 189.609 24.4888C188.071 22.9507 187.302 21.0366 187.302 18.7466C187.302 16.4565 188.071 14.5425 189.609 13.0044C191.147 11.4663 193.061 10.6973 195.351 10.6973C196.171 10.6973 196.992 10.834 197.795 11.0903C198.581 11.3467 199.23 11.6201 199.726 11.9277C200.205 12.2354 200.666 12.5771 201.076 12.9702C201.486 13.3804 201.76 13.6538 201.879 13.8247C201.999 13.9956 202.102 14.1152 202.17 14.2007L205.502 10.8682L205.109 10.3555C204.853 10.0308 204.443 9.62061 203.862 9.14209C203.281 8.66357 202.631 8.18506 201.879 7.70654C201.127 7.22803 200.188 6.83496 199.025 6.49316C197.863 6.15137 196.633 5.98047 195.351 5.98047C191.608 5.98047 188.447 7.22803 185.883 9.72314C183.32 12.2183 182.038 15.2261 182.038 18.7466C182.038 22.2671 183.32 25.292 185.883 27.7871C188.447 30.2822 191.608 31.5298 195.351 31.5298C196.65 31.5298 197.897 31.3589 199.128 31.0171C200.358 30.6753 201.35 30.2993 202.102 29.8892C202.854 29.479 203.571 29.0005 204.255 28.4536C204.938 27.9067 205.366 27.5308 205.571 27.3086C205.776 27.0864 205.913 26.9155 206.015 26.7959V17.7041H196.394ZM215.977 22.438C215.977 21.1562 216.387 20.0796 217.225 19.1909C218.045 18.3193 219.036 17.875 220.181 17.875C221.309 17.875 222.3 18.3193 223.138 19.1909C223.958 20.0796 224.385 21.1562 224.385 22.438C224.385 23.7197 223.958 24.7964 223.138 25.668C222.3 26.5396 221.309 26.9668 220.181 26.9668C219.036 26.9668 218.045 26.5396 217.225 25.668C216.387 24.7964 215.977 23.7197 215.977 22.438ZM229.273 22.4209C229.273 20.0454 228.367 17.9604 226.556 16.1831C224.744 14.4058 222.625 13.5171 220.181 13.5171C217.72 13.5171 215.601 14.4058 213.79 16.1831C211.978 17.9604 211.072 20.0454 211.072 22.4209C211.072 24.8135 211.978 26.8984 213.79 28.6758C215.601 30.4531 217.72 31.3418 220.181 31.3418C222.625 31.3418 224.744 30.4531 226.556 28.6758C228.367 26.8984 229.273 24.8135 229.273 22.4209ZM93.1475 50V48.6987H88.7295V40.8975H87.3013V50H93.1475ZM101.599 45.4487C101.599 44.5093 101.923 43.7095 102.577 43.0557C103.231 42.4019 104.031 42.0718 104.976 42.0718C105.922 42.0718 106.722 42.4019 107.376 43.0557C108.03 43.7095 108.36 44.5093 108.36 45.4487C108.36 46.3945 108.03 47.1943 107.376 47.8481C106.722 48.5083 105.922 48.832 104.976 48.832C104.031 48.832 103.231 48.5083 102.577 47.8481C101.923 47.1943 101.599 46.3945 101.599 45.4487ZM100.171 45.4487C100.171 46.7563 100.628 47.8672 101.555 48.7686C102.475 49.6763 103.618 50.127 104.976 50.127C106.335 50.127 107.477 49.6763 108.398 48.7686C109.325 47.8672 109.782 46.7563 109.782 45.4487C109.782 44.1411 109.325 43.0366 108.398 42.1289C107.477 41.2275 106.335 40.7705 104.976 40.7705C103.618 40.7705 102.475 41.2275 101.555 42.1289C100.628 43.0366 100.171 44.1411 100.171 45.4487ZM122.537 40.7705C121.173 40.7705 120.03 41.2275 119.11 42.1289C118.183 43.0366 117.726 44.1411 117.726 45.4487C117.726 46.7563 118.183 47.8672 119.11 48.7686C120.03 49.6763 121.173 50.127 122.537 50.127C122.994 50.127 123.439 50.0635 123.87 49.9365C124.302 49.8096 124.657 49.6636 124.924 49.5049C125.191 49.3398 125.445 49.1558 125.686 48.9526C125.927 48.7432 126.079 48.5972 126.149 48.5146C126.219 48.4321 126.27 48.3687 126.302 48.3179L125.387 47.4038L125.286 47.5625C125.21 47.6577 125.089 47.772 124.924 47.9116C124.759 48.0513 124.575 48.1909 124.359 48.3306C124.143 48.4702 123.877 48.5845 123.553 48.686C123.229 48.7876 122.886 48.8384 122.531 48.8384C121.585 48.8384 120.785 48.5083 120.132 47.8545C119.478 47.1943 119.148 46.3945 119.148 45.4551C119.148 44.5093 119.478 43.7095 120.132 43.0557C120.792 42.4019 121.592 42.0781 122.531 42.0781C122.886 42.0781 123.229 42.1226 123.547 42.2241C123.864 42.3257 124.124 42.4336 124.321 42.5479C124.524 42.6621 124.708 42.8018 124.88 42.9604C125.057 43.1255 125.165 43.2334 125.216 43.2969C125.267 43.3604 125.299 43.4048 125.324 43.4365L126.232 42.5225L126.092 42.3447C125.997 42.2241 125.844 42.0781 125.635 41.9067C125.432 41.7417 125.191 41.5703 124.911 41.3926C124.632 41.2212 124.283 41.0752 123.858 40.9546C123.439 40.834 122.994 40.7705 122.537 40.7705ZM133.452 50H134.944L135.922 47.5942H139.952L140.93 50H142.422L138.651 40.8975H137.223L133.452 50ZM137.94 42.5225L139.432 46.293H136.442L137.94 42.5225ZM156.206 50V48.6987H151.788V40.8975H150.359V50H156.206ZM177.534 47.3975C177.534 47.8037 177.369 48.1465 177.045 48.4194C176.715 48.6987 176.271 48.832 175.712 48.832C175.408 48.832 175.116 48.8003 174.843 48.7241C174.57 48.6479 174.354 48.5654 174.189 48.4766C174.024 48.3877 173.865 48.2798 173.725 48.1592C173.586 48.0386 173.491 47.9561 173.452 47.9053C173.414 47.8545 173.383 47.8164 173.37 47.791L172.462 48.6987L172.589 48.8574C172.665 48.9526 172.799 49.0669 172.976 49.2065C173.154 49.3462 173.364 49.4858 173.605 49.6255C173.846 49.7651 174.151 49.8794 174.525 49.981C174.9 50.0825 175.293 50.1333 175.712 50.1333C176.728 50.1333 177.521 49.8794 178.099 49.3716C178.67 48.8638 178.962 48.2036 178.962 47.4038C178.962 46.9468 178.873 46.5532 178.696 46.2231C178.518 45.8931 178.283 45.6392 178.004 45.4614C177.724 45.2837 177.413 45.1313 177.071 45.0044C176.728 44.8774 176.385 44.7759 176.042 44.687C175.699 44.5981 175.382 44.5029 175.103 44.395C174.824 44.2871 174.595 44.1348 174.417 43.9443C174.24 43.7539 174.151 43.519 174.151 43.2397C174.151 42.9287 174.29 42.6558 174.576 42.4209C174.862 42.1924 175.242 42.0718 175.712 42.0718C175.941 42.0718 176.163 42.1035 176.372 42.1543C176.582 42.2114 176.753 42.2749 176.88 42.3447C177.007 42.4146 177.128 42.4907 177.242 42.5796C177.356 42.6685 177.426 42.7319 177.458 42.77C177.49 42.8081 177.515 42.8398 177.534 42.8525L178.442 41.9385L178.34 41.8115C178.264 41.7354 178.15 41.6401 177.997 41.5259C177.845 41.4116 177.661 41.3037 177.458 41.1895C177.255 41.0752 176.994 40.98 176.683 40.8975C176.372 40.8149 176.049 40.7705 175.712 40.7705C174.792 40.7705 174.062 41.0117 173.529 41.4814C172.989 41.9512 172.722 42.5415 172.722 43.2397C172.722 43.7031 172.811 44.0967 172.989 44.4268C173.167 44.7568 173.395 45.0044 173.675 45.1821C173.954 45.3599 174.271 45.5122 174.614 45.6392C174.957 45.7661 175.3 45.874 175.642 45.9629C175.985 46.0518 176.296 46.147 176.575 46.2549C176.855 46.3628 177.09 46.5088 177.267 46.6992C177.445 46.8896 177.534 47.1182 177.534 47.3975ZM194.625 40.8975H193.197V44.7378H188.709V40.8975H187.281V50H188.709V46.0327H193.197V50H194.625V40.8975ZM204.499 45.4487C204.499 44.5093 204.823 43.7095 205.477 43.0557C206.13 42.4019 206.93 42.0718 207.876 42.0718C208.822 42.0718 209.622 42.4019 210.275 43.0557C210.929 43.7095 211.259 44.5093 211.259 45.4487C211.259 46.3945 210.929 47.1943 210.275 47.8481C209.622 48.5083 208.822 48.832 207.876 48.832C206.93 48.832 206.13 48.5083 205.477 47.8481C204.823 47.1943 204.499 46.3945 204.499 45.4487ZM203.071 45.4487C203.071 46.7563 203.528 47.8672 204.455 48.7686C205.375 49.6763 206.518 50.127 207.876 50.127C209.234 50.127 210.377 49.6763 211.297 48.7686C212.224 47.8672 212.681 46.7563 212.681 45.4487C212.681 44.1411 212.224 43.0366 211.297 42.1289C210.377 41.2275 209.234 40.7705 207.876 40.7705C206.518 40.7705 205.375 41.2275 204.455 42.1289C203.528 43.0366 203.071 44.1411 203.071 45.4487ZM221.146 40.8975V50H222.574V46.75H224.783C225.646 46.75 226.376 46.4707 226.96 45.8994C227.544 45.3345 227.843 44.6426 227.843 43.8301C227.843 43.0176 227.544 42.3257 226.96 41.7544C226.376 41.1831 225.646 40.9038 224.783 40.9038L221.146 40.8975ZM224.783 42.2051C225.227 42.2051 225.615 42.3574 225.932 42.6748C226.249 42.9858 226.408 43.373 226.408 43.8301C226.408 44.2871 226.249 44.6743 225.932 44.9854C225.615 45.2964 225.227 45.4487 224.783 45.4487H222.574V42.1987L224.783 42.2051Z" fill="white"/>
</svg>
